<?xml version="1.0" standalone="no"?>
<!DOCTYPE svg PUBLIC "-//W3C//DTD SVG 20010904//EN"
 "http://www.w3.org/TR/2001/REC-SVG-20010904/DTD/svg10.dtd">
<svg version="1.0" xmlns="http://www.w3.org/2000/svg"
 width="310.000000pt" height="310.000000pt" viewBox="0 0 310.000000 310.000000"
 preserveAspectRatio="xMidYMid meet">
<metadata>
Created by potrace 1.14, written by Peter Selinger 2001-2017
</metadata>
<g transform="translate(0.000000,310.000000) scale(0.100000,-0.100000)"
fill="#000000" stroke="none">
<path d="M1522 2448 l3 -373 298 -3 c257 -2 298 0 303 13 8 19 -561 729 -587
733 -19 3 -19 -8 -17 -370z m295 -28 c120 -151 222 -281 227 -287 6 -10 -45
-13 -238 -13 l-246 0 0 307 c0 301 0 307 19 288 10 -11 117 -144 238 -295z"/>
<path d="M1407 2683 c-51 -99 -258 -594 -252 -602 4 -7 60 -11 151 -11 l144 0
-2 317 c-3 326 -8 361 -41 296z m-1 -560 c-2 -2 -46 -2 -98 -1 l-94 3 96 219
95 219 3 -218 c1 -120 1 -220 -2 -222z"/>
<path d="M983 2008 c3 -18 8 -40 11 -48 5 -13 -11 -19 -84 -34 -72 -15 -112
-17 -200 -11 -107 7 -110 7 -110 -14 0 -12 2 -21 4 -21 2 0 49 -5 104 -10 82
-9 114 -8 174 5 112 23 155 20 207 -15 46 -31 155 -70 197 -70 18 0 27 -9 38
-34 14 -34 50 -66 74 -66 7 0 39 18 70 40 59 41 124 60 206 60 55 0 170 33
252 71 60 29 71 31 123 23 57 -8 172 -9 291 -4 36 2 86 0 113 -5 43 -7 47 -6
47 12 0 31 -119 51 -211 35 -86 -15 -142 -15 -193 -1 l-39 11 48 42 c30 26 46
47 41 54 -5 9 -150 12 -588 12 l-581 0 6 -32z m1052 -34 c-16 -13 -39 -26 -50
-28 -264 -52 -257 -51 -331 -31 -88 24 -172 24 -302 0 -99 -19 -105 -19 -190
-2 -61 12 -92 24 -104 38 -43 50 -55 49 495 49 l512 -1 -30 -25z m-411 -99
c27 -8 74 -15 105 -16 83 -1 34 -16 -87 -28 -112 -11 -138 -19 -203 -66 -53
-38 -66 -34 -78 27 -6 30 -11 33 -56 40 -28 4 -63 12 -80 17 -25 8 -19 10 40
11 39 1 95 8 125 15 77 17 176 17 234 0z m193 -11 c-3 -3 -12 -4 -19 -1 -8 3
-5 6 6 6 11 1 17 -2 13 -5z"/>
<path d="M850 755 l0 -335 225 0 225 0 0 30 0 30 -190 0 -190 0 0 305 0 305
-35 0 -35 0 0 -335z"/>
<path d="M1240 1084 c0 -4 59 -103 130 -219 l130 -213 0 -116 0 -116 35 0 35
0 0 118 c0 65 4 122 9 128 5 5 66 102 135 217 l126 207 -38 0 -37 -1 -110
-184 c-60 -101 -112 -184 -115 -185 -3 0 -55 82 -116 183 -109 178 -112 182
-148 185 -20 2 -36 0 -36 -4z"/>
<path d="M2066 1065 c-198 -81 -267 -325 -144 -509 60 -92 157 -139 289 -139
70 0 94 4 140 25 29 14 65 34 79 46 l25 21 -22 22 -23 23 -30 -23 c-66 -48
-190 -66 -267 -38 -60 22 -117 72 -148 128 -26 47 -30 64 -30 134 0 71 3 86
31 135 85 149 276 184 426 78 15 -11 21 -9 40 10 l23 23 -30 25 c-83 67 -247
85 -359 39z"/>
</g>
</svg>
